<svg width="606" height="831" viewBox="0 0 606 831" fill="none" xmlns="http://www.w3.org/2000/svg">
<path opacity="0.03" d="M257.722 1.9468L606 464.134L257.644 449.341C255.072 449.249 252.266 444.256 252.89 440.928L287.959 256.201L463.462 360.491L285.855 222.824L252.968 3.98083C252.344 -0.272148 255.15 -1.38162 257.722 1.9468Z" fill="url(#paint0_linear_1445_1184)"/>
<path opacity="0.3" d="M230.99 24.9685L579.269 487.156L230.912 472.363C228.34 472.271 225.535 467.278 226.158 463.95L261.15 279.315L436.653 383.605L259.202 245.846L226.236 27.0026C225.613 22.7496 228.418 21.6401 230.99 24.9685Z" fill="url(#paint1_linear_1445_1184)"/>
<path opacity="0.3" d="M256.63 513.229L24.7041 354.389L24.782 497.788L236.212 642.575L256.708 678.54L256.63 513.229Z" fill="url(#paint2_linear_1445_1184)"/>
<path opacity="0.6" d="M0 410.326V371.402L87.5177 431.313V470.237L0 410.326Z" fill="white"/>
<path opacity="0.15" d="M197.012 507.312L146.2 472.548V485.122L197.012 519.886V507.312Z" fill="white"/>
<path opacity="0.15" d="M197.012 532.46L99.0518 465.429V478.003L197.012 545.034V532.46Z" fill="white"/>
<path opacity="0.15" d="M197.09 557.7L78.3994 476.431V489.005L197.09 570.274V557.7Z" fill="white"/>
<path d="M209.56 528.946C209.56 540.781 215.482 554.372 222.73 559.364C229.978 564.357 235.901 558.81 235.901 546.975C235.901 535.141 229.978 521.55 222.73 516.557C215.404 511.564 209.56 517.112 209.56 528.946Z" fill="#2498F3"/>
<path opacity="0.3" d="M276.659 394.793L508.585 553.632L508.663 697.031L297.155 552.153L276.737 560.104L276.659 394.793Z" fill="url(#paint3_linear_1445_1184)"/>
<path d="M441.096 578.873V539.948L528.613 599.86V638.784L441.096 578.873Z" fill="#2498F3"/>
<path opacity="0.15" d="M336.277 470.514L387.089 505.278V517.852L336.277 483.088V470.514Z" fill="white"/>
<path opacity="0.15" d="M336.277 495.755L428.003 558.532V571.106L336.277 508.329V495.755Z" fill="white"/>
<path opacity="0.15" d="M336.354 520.903L455.045 602.171V614.745L336.354 533.477V520.903Z" fill="white"/>
<path d="M323.808 475.045C323.808 486.879 317.885 492.426 310.637 487.434C303.39 482.441 297.467 468.85 297.467 457.016C297.467 445.181 303.39 439.634 310.637 444.626C317.885 449.619 323.808 463.303 323.808 475.045Z" fill="#2498F3"/>
<path opacity="0.2" d="M540.304 745.386L401.818 650.526V736.14L540.304 831V745.386Z" fill="url(#paint4_linear_1445_1184)"/>
<path opacity="0.15" d="M437.277 695.459L478.893 724.028V734.291L437.277 705.722V695.459Z" fill="white"/>
<path opacity="0.15" d="M437.277 716.077L525.964 776.821V787.269L437.277 726.525V716.077Z" fill="white"/>
<path d="M429.951 698.51C429.951 705.537 426.444 708.865 422.08 705.907C417.716 702.948 414.209 694.812 414.209 687.785C414.209 680.759 417.716 677.43 422.08 680.389C426.444 683.348 429.951 691.484 429.951 698.51Z" fill="#2498F3"/>
<path opacity="0.2" d="M156.877 614.098L18.3916 519.238V604.853L156.877 699.712V614.098Z" fill="url(#paint5_linear_1445_1184)"/>
<path opacity="0.15" d="M53.8516 564.172L95.4673 592.741V603.003L53.8516 574.435V564.172Z" fill="white"/>
<path opacity="0.15" d="M53.8516 584.79L142.538 645.533V655.981L53.8516 595.237V584.79Z" fill="white"/>
<path opacity="0.6" d="M46.5255 567.223C46.5255 574.25 43.0185 577.578 38.6543 574.619C34.2901 571.661 30.7832 563.525 30.7832 556.498C30.7832 549.471 34.2901 546.143 38.6543 549.102C43.0185 552.06 46.5255 560.196 46.5255 567.223Z" fill="white"/>
<path opacity="0.2" d="M176.75 341.815L143.396 318.978V305.665L176.75 328.501C179.478 330.351 183.453 334.141 186.804 339.966C190.466 346.161 193.038 354.019 193.038 362.525C193.038 371.956 191.012 377.318 187.193 378.797C183.608 380.184 179.322 377.78 176.75 376.024L163.034 366.593L162.956 366.501C161.787 365.669 159.917 364.837 158.436 365.391C157.189 365.854 155.865 367.24 155.865 372.51C155.865 377.78 157.267 380.924 158.358 382.866C159.761 385.269 161.632 386.934 162.801 387.673L162.956 387.766L204.884 416.52V429.833L163.19 401.264C160.307 399.508 156.176 395.717 152.591 389.8C148.695 383.235 146.045 375.007 146.045 365.854C146.045 356.7 148.695 352.078 152.514 350.783C156.098 349.581 160.229 351.338 163.112 353.372L176.673 362.618C178.621 364.005 180.102 364.559 181.115 364.189C181.894 363.912 183.297 362.618 183.297 355.868C183.297 351.431 182.128 348.564 180.959 346.715C179.634 344.311 177.841 342.555 176.75 341.815Z" fill="white"/>
<path opacity="0.6" d="M149.474 316.112C149.474 328.039 143.551 333.679 136.303 328.779C129.056 323.786 123.133 310.103 123.133 298.084C123.133 286.157 129.056 280.517 136.303 285.417C143.551 290.41 149.474 304.186 149.474 316.112Z" fill="white"/>
<path opacity="0.6" d="M221.95 434.456C221.95 446.383 216.028 452.023 208.78 447.123C201.532 442.13 195.609 428.447 195.609 416.427C195.609 404.5 201.532 398.861 208.78 403.761C216.028 408.753 221.95 422.529 221.95 434.456Z" fill="white"/>
<path opacity="0.2" d="M314.534 625.563V703.503C314.534 704.335 315.236 705.26 315.703 704.982L331.056 693.795L346.72 726.71C347.577 728.466 349.058 728.651 349.058 726.987V649.324L314.534 625.563Z" fill="url(#paint6_linear_1445_1184)"/>
<defs>
<linearGradient id="paint0_linear_1445_1184" x1="475.571" y1="160.569" x2="281.081" y2="377.064" gradientUnits="userSpaceOnUse">
<stop stop-color="white"/>
<stop offset="1" stop-color="white" stop-opacity="0"/>
</linearGradient>
<linearGradient id="paint1_linear_1445_1184" x1="448.875" y1="183.6" x2="254.385" y2="400.094" gradientUnits="userSpaceOnUse">
<stop stop-color="white"/>
<stop offset="1" stop-color="white" stop-opacity="0"/>
</linearGradient>
<linearGradient id="paint2_linear_1445_1184" x1="206.071" y1="455.763" x2="71.5243" y2="544.561" gradientUnits="userSpaceOnUse">
<stop stop-color="white"/>
<stop offset="1" stop-color="white" stop-opacity="0"/>
</linearGradient>
<linearGradient id="paint3_linear_1445_1184" x1="376.287" y1="399.412" x2="418.229" y2="686.155" gradientUnits="userSpaceOnUse">
<stop stop-color="white"/>
<stop offset="1" stop-color="white" stop-opacity="0"/>
</linearGradient>
<linearGradient id="paint4_linear_1445_1184" x1="486.672" y1="708.666" x2="446.768" y2="766.939" gradientUnits="userSpaceOnUse">
<stop stop-color="white"/>
<stop offset="1" stop-color="white" stop-opacity="0"/>
</linearGradient>
<linearGradient id="paint5_linear_1445_1184" x1="103.245" y1="577.377" x2="63.342" y2="635.65" gradientUnits="userSpaceOnUse">
<stop stop-color="white"/>
<stop offset="1" stop-color="white" stop-opacity="0"/>
</linearGradient>
<linearGradient id="paint6_linear_1445_1184" x1="346.726" y1="665.403" x2="303.881" y2="688.275" gradientUnits="userSpaceOnUse">
<stop stop-color="white"/>
<stop offset="1" stop-color="white" stop-opacity="0"/>
</linearGradient>
</defs>
</svg>
