<svg width="297" height="84" viewBox="0 0 297 84" fill="none" xmlns="http://www.w3.org/2000/svg">
<path d="M274.601 46.2667H236.521L240.074 26.5676C240.75 22.8242 244.451 19.7593 248.301 19.7593H279.382C283.231 19.7593 285.829 22.822 285.153 26.5676L282.828 39.4584C282.152 43.2039 278.449 46.2667 274.601 46.2667Z" fill="#E20613"/>
<path d="M250.645 26.1848H245.49C244.892 26.1848 244.666 26.3937 244.557 26.9817L242.501 38.9787C242.388 39.5344 242.557 39.7304 243.155 39.7304H245.262C245.86 39.7304 246.088 39.5344 246.201 38.9787L246.758 35.9094H249.041C251.867 35.9094 253.824 34.5094 254.309 31.3971C254.807 28.1965 253.357 26.1848 250.645 26.1848ZM249.171 32.5904H247.34L247.825 29.5017H249.656C250.554 29.5017 250.952 30.135 250.817 31.059C250.667 31.983 250.047 32.5904 249.171 32.5904Z" fill="white"/>
<path d="M263.254 26.1821H257.929C257.331 26.1821 257.103 26.3911 256.99 26.9791L254.938 39.0492C254.824 39.551 254.99 39.7298 255.588 39.7298H257.699C258.299 39.7298 258.525 39.551 258.634 39.0492L259.273 35.9067H259.758C260.577 35.9067 260.71 36.1824 260.917 36.7338L261.665 38.9523C261.852 39.5166 262.243 39.7298 263.232 39.7298H265.076C265.637 39.7298 265.826 39.3723 265.674 38.9372L264.652 36.1674C264.55 35.9067 264.445 35.631 264.328 35.3704C265.587 34.6144 266.474 33.3609 266.763 31.2307C267.274 27.9677 265.828 26.1821 263.254 26.1821ZM263.269 31.0218C263.141 31.9824 262.615 32.5898 261.83 32.5898H259.814L260.262 29.5012H262.26C263.063 29.4991 263.408 30.0892 263.269 31.0218Z" fill="white"/>
<path d="M267.68 31.2135L267.102 34.4701C266.565 37.6449 268.241 39.844 271.922 39.844C275.853 39.844 278.084 38.0434 278.645 34.8643L279.206 31.6077C279.765 28.4394 278.084 26.1821 274.397 26.1821C270.466 26.1821 268.222 28.0431 267.68 31.2135ZM275.688 31.2286L274.992 34.7932C274.771 35.9283 273.857 36.5271 272.479 36.5271C271.085 36.5271 270.426 35.9304 270.631 34.7932L271.327 31.2286C271.548 30.0935 272.461 29.5012 273.86 29.5012C275.231 29.5012 275.89 30.0935 275.688 31.2286Z" fill="white"/>
<path d="M31.8374 20.7803H19.7118C18.1115 20.7803 17.5136 21.323 17.2157 22.8587L11.7236 54.3329C11.4214 55.8686 11.8737 56.4157 13.4695 56.4157H25.7496C35.6271 56.4157 41.7193 51.8603 43.2522 43.176L44.5415 35.5449C46.0852 26.8153 41.6693 20.7803 31.8374 20.7803ZM34.8335 34.931L33.5877 42.2563C32.9376 45.8661 30.8895 47.7507 26.8454 47.7507H22.7535L25.9496 29.4387H29.9937C34.0378 29.4387 35.4793 31.319 34.8335 34.931Z" fill="white"/>
<path d="M51.4422 22.8458L45.8631 54.3501C45.6153 55.8492 46.0153 56.3489 47.5221 56.3489H53.4512C54.9601 56.3489 55.5624 55.8492 55.8146 54.3501L61.3893 22.8458C61.6872 21.3446 61.2371 20.8406 59.7304 20.8406H53.8034C52.2945 20.8406 51.7444 21.3446 51.4422 22.8458Z" fill="white"/>
<path d="M64.6311 29.9167C62.9895 39.9989 70.5537 41.9115 76.3785 42.7407C79.9812 43.2038 82.7446 43.7767 82.4032 45.7927C81.9532 48.0155 79.5854 48.7392 75.7545 48.7392C72.8345 48.7392 71.1342 47.8066 70.5515 45.9974C70.0645 44.4961 69.434 44.3432 67.8837 44.858L62.9874 46.6198C61.4393 47.1863 60.8892 47.9121 61.1371 49.4564C62.1372 54.6817 67.3467 57.3977 74.626 57.3977C84.6775 57.3977 90.7327 54.1712 92.0438 46.6198C93.681 37.1558 86.7148 34.4678 81.1074 33.6386C77.0525 33.1712 73.9498 32.706 74.2912 30.4832C74.6282 28.6761 76.3176 27.7931 80.1486 27.7931C82.6924 27.7931 84.2948 28.5189 84.921 30.4832C85.4559 31.9844 85.9386 32.1891 87.3431 31.5709L92.1416 29.5527C93.7353 28.8807 94.1332 28.3638 93.6332 26.9444C92.1416 22.5808 88.7955 19.9983 81.5031 19.9983C71.232 20.0004 65.7965 23.522 64.6311 29.9167Z" fill="white"/>
<path d="M189.678 20.7781H175.452C173.852 20.7781 173.254 21.3208 172.956 22.8565L167.464 54.2359C167.162 55.7975 167.614 56.3488 169.21 56.3488H174.854C176.45 56.3488 177.05 55.7975 177.35 54.2359L179.046 44.4725H180.344C182.54 44.4725 182.888 45.3298 183.436 47.0421L185.434 53.9344C185.932 55.6941 186.982 56.3488 189.628 56.3488H194.694C196.242 56.3488 196.757 55.2418 196.335 53.8827L193.522 45.2781C193.244 44.4725 192.961 43.8199 192.631 43.2104C196.098 41.4378 198.538 38.4956 199.334 33.4965C200.714 25.4304 196.755 20.7781 189.678 20.7781ZM189.726 33.0033C189.376 35.2519 187.98 36.6778 185.884 36.6778H180.494L181.69 29.4387H187.032C189.18 29.4387 190.102 30.8128 189.726 33.0033Z" fill="white"/>
<path d="M203.313 33.3608L201.724 42.7774C200.278 51.6297 204.854 57.3697 214.723 57.3697C224.77 57.3697 230.908 52.6657 232.456 43.9211L234.004 34.5045C235.5 25.6457 230.908 19.7571 221.018 19.7571C210.973 19.7592 204.807 24.6075 203.313 33.3608ZM224.318 33.4125L222.542 43.7143C221.981 46.9925 219.646 48.7134 216.143 48.7134C212.59 48.7134 210.873 46.9925 211.423 43.7143L213.199 33.4125C213.756 30.1343 216.091 28.4177 219.644 28.4177C223.151 28.4177 224.87 30.1343 224.318 33.4125Z" fill="white"/>
<path d="M167.577 17.7476C167.222 17.5451 166.764 17.5344 166.266 17.6291L136.794 47.5008H136.796L157.186 70.8636C158.13 71.4925 159.354 70.9174 159.597 69.7307C160.828 63.6805 168.203 20.4485 168.179 19.2101C168.166 18.3873 167.933 17.9479 167.577 17.7476Z" fill="#E20613"/>
<path d="M164.885 18.0958C164.19 18.4189 126.558 36.9893 113.852 43.3324C112.484 44.0152 112.626 46.2013 114.063 46.6644L136.796 47.5023L166.268 17.6284C165.825 17.7124 165.353 17.8783 164.885 18.0958Z" fill="#A41915"/>
<path d="M110.923 45.0089C110.804 43.4452 111.602 42 112.956 41.3237C116.196 39.7062 121.088 37.2788 126.578 34.5606C126.623 34.3431 126.676 34.1342 126.715 33.9102C128.052 26.0271 124.095 20.7825 116.65 20.7825H102.874C101.274 20.7825 100.676 21.3252 100.378 22.8609L94.8839 54.1908C94.5839 55.7846 95.034 56.3511 96.6299 56.3511H102.274C103.87 56.3511 104.47 55.7846 104.77 54.1908L106.264 45.3988H110.982C110.958 45.2695 110.934 45.1425 110.923 45.0089ZM109.112 29.4388H114.004C116.4 29.4388 117.479 30.9271 117.1 33.1132C116.7 35.2972 115.054 36.7382 112.706 36.7382H107.814L109.112 29.4388Z" fill="white"/>
</svg>
